/* XPM */
static char * x42_fil4_32x32_xpm[] = {
"32 32 73 1",
" 	c None",
".	c #3D3D3D",
"+	c #000000",
"@	c #838383",
"#	c #000001",
"$	c #06060B",
"%	c #08080D",
"&	c #040409",
"*	c #828283",
"=	c #2D2D55",
"-	c #8686EE",
";	c #9D9DFD",
">	c #7474D2",
",	c #82829D",
"'	c #222248",
")	c #9A9AF7",
"!	c #A4A4FF",
"~	c #A2A2FF",
"{	c #A5A5FF",
"]	c #9292E9",
"^	c #101023",
"/	c #072907",
"(	c #125D12",
"_	c #5DA25D",
":	c #020E02",
"<	c #878787",
"[	c #2A2A2A",
"}	c #DCDCE9",
"|	c #FFFFFF",
"1	c #A3A3FF",
"2	c #9C9CFD",
"3	c #2D2D4B",
"4	c #113E11",
"5	c #2AC72A",
"6	c #2BDE2B",
"7	c #2BDB2B",
"8	c #21A921",
"9	c #111111",
"0	c #D0D0D0",
"a	c #DEDEEA",
"b	c #ABABFE",
"c	c #262646",
"d	c #131313",
"e	c #1E251E",
"f	c #BEEBBE",
"g	c #F2FDF2",
"h	c #D9D9D9",
"i	c #060606",
"j	c #09091C",
"k	c #8B8BE0",
"l	c #8F8FD5",
"m	c #C0C0C0",
"n	c #0F0F0F",
"o	c #010101",
"p	c #717171",
"q	c #2CE02C",
"r	c #25C325",
"s	c #6363BB",
"t	c #8A8AE0",
"u	c #4E4E99",
"v	c #7E7E88",
"w	c #232323",
"x	c #010901",
"y	c #25C125",
"z	c #2CE22C",
"A	c #1B911B",
"B	c #0B3C0B",
"C	c #27CB27",
"D	c #22B022",
"E	c #031003",
"F	c #082E08",
"G	c #136613",
"H	c #59A559",
"................................",
".++++++++++++++++++++++++++++++.",
".++++++++++++++++++++++++++++++.",
".++++++++++++++++++++++++++++++.",
".++++++++++++++++++++++++++++++.",
".@@@@@@@@@@@@@@@@@@@@@@@@@@@@@@.",
".++++++@+++++++@+++++++@+++++++.",
".++++++@+++++++@+++++++@+++++++.",
".++++++@+++++++@+++++++@+++++++.",
".++++++@+++++++@+++#$%&*+++++++.",
".++++++@+++++++@+++=-;>,+++++++.",
".++++++@+++++++@++')!~{]^++++++.",
".++++/(_:++++++<+[}|||123++++++.",
".+++45678:++++90||ab~~||c++++++.",
".+defg|||||||||hi+jk~~1l|mn++++.",
".op||qqqqr+++++@+++jstuvw||++++.",
".+|xyzqqqA+++++@+++++++@+++||||.",
".|++BC67DE+++++@+++++++@+++++++.",
".++++FGHE++++++@+++++++@+++++++.",
".++++++@+++++++@+++++++@+++++++.",
".++++++@+++++++@+++++++@+++++++.",
".++++++@+++++++@+++++++@+++++++.",
".++++++@+++++++@+++++++@+++++++.",
".++++++@+++++++@+++++++@+++++++.",
".++++++@+++++++@+++++++@+++++++.",
".@@@@@@@@@@@@@@@@@@@@@@@@@@@@@@.",
".++++++++++++++++++++++++++++++.",
".++++++++++++++++++++++++++++++.",
".++++++++++++++++++++++++++++++.",
".++++++++++++++++++++++++++++++.",
".++++++++++++++++++++++++++++++.",
"................................"};
